<mxfile host="app.diagrams.net" modified="2021-04-07T13:13:06.776Z" agent="5.0 (Windows NT 10.0; Win64; x64) AppleWebKit/537.36 (KHTML, like Gecko) Chrome/89.0.4389.114 Safari/537.36" etag="ihx39UGIHojL057k3dxB" version="14.5.7" type="github">
  <diagram id="vaa92pbLD174g5OhY9mO" name="Page-1">
    <mxGraphModel dx="920" dy="552" grid="1" gridSize="10" guides="1" tooltips="1" connect="1" arrows="1" fold="1" page="1" pageScale="1" pageWidth="3300" pageHeight="4681" math="0" shadow="0">
      <root>
        <mxCell id="0" />
        <mxCell id="1" parent="0" />
        <mxCell id="cIO9dwuHijUFWXJYowMV-1" value="" style="rounded=1;whiteSpace=wrap;html=1;strokeWidth=3;fillColor=#FFFFFF;fontColor=#CC0066;strokeColor=#66B2FF;labelBackgroundColor=#ffffff;" parent="1" vertex="1">
          <mxGeometry x="100" y="40" width="800" height="300" as="geometry" />
        </mxCell>
        <mxCell id="cIO9dwuHijUFWXJYowMV-3" value="&lt;font color=&quot;#ffffff&quot;&gt;Development Environment&lt;/font&gt;" style="text;html=1;align=center;verticalAlign=middle;whiteSpace=wrap;rounded=0;direction=west;rotation=-90;strokeWidth=1;strokeColor=#3399FF;fillColor=#3399FF;" parent="1" vertex="1">
          <mxGeometry x="-20" y="180" width="190" height="20" as="geometry" />
        </mxCell>
        <mxCell id="cIO9dwuHijUFWXJYowMV-9" value="" style="group" parent="1" vertex="1" connectable="0">
          <mxGeometry x="110" y="60" width="180" height="210" as="geometry" />
        </mxCell>
        <mxCell id="cIO9dwuHijUFWXJYowMV-7" value="" style="rounded=0;whiteSpace=wrap;html=1;strokeWidth=1;fillColor=#fff2cc;strokeColor=#3399FF;" parent="cIO9dwuHijUFWXJYowMV-9" vertex="1">
          <mxGeometry x="10" width="160" height="210" as="geometry" />
        </mxCell>
        <mxCell id="cIO9dwuHijUFWXJYowMV-10" value="" style="rounded=1;whiteSpace=wrap;html=1;fillColor=#FFFFFF;strokeColor=#CC0066;strokeWidth=2;labelBackgroundColor=#ffffff;" parent="1" vertex="1">
          <mxGeometry x="130" y="125" width="140" height="40" as="geometry" />
        </mxCell>
        <mxCell id="cIO9dwuHijUFWXJYowMV-11" value="&lt;font color=&quot;#0066cc&quot; style=&quot;font-size: 10px&quot;&gt;IMpact - QVD Transform - v2&lt;br&gt;&lt;/font&gt;" style="text;html=1;strokeColor=none;fillColor=none;align=center;verticalAlign=middle;whiteSpace=wrap;rounded=0;direction=west;rotation=0;" parent="1" vertex="1">
          <mxGeometry x="105" y="135" width="190" height="20" as="geometry" />
        </mxCell>
        <mxCell id="cIO9dwuHijUFWXJYowMV-16" value="&lt;font color=&quot;#3399ff&quot;&gt;&lt;span style=&quot;font-size: 10px&quot;&gt;GSO - ITS - AppDev Team - DEV&lt;/span&gt;&lt;/font&gt;" style="text;html=1;strokeColor=#d6b656;align=center;verticalAlign=middle;whiteSpace=wrap;rounded=0;fillColor=#fff2cc;" parent="1" vertex="1">
          <mxGeometry x="410" y="270" width="160" height="20" as="geometry" />
        </mxCell>
        <mxCell id="cIO9dwuHijUFWXJYowMV-25" value="" style="endArrow=classic;html=1;exitX=0.5;exitY=0;exitDx=0;exitDy=0;entryX=0.438;entryY=0.056;entryDx=0;entryDy=0;entryPerimeter=0;strokeColor=#97D077;strokeWidth=4;" parent="1" source="cIO9dwuHijUFWXJYowMV-22" target="cIO9dwuHijUFWXJYowMV-7" edge="1">
          <mxGeometry relative="1" as="geometry">
            <mxPoint x="410" y="-10" as="sourcePoint" />
            <mxPoint x="200" y="20" as="targetPoint" />
            <Array as="points">
              <mxPoint x="490" y="20" />
              <mxPoint x="190" y="20" />
            </Array>
          </mxGeometry>
        </mxCell>
        <mxCell id="cIO9dwuHijUFWXJYowMV-26" value="Snowflake Connector" style="edgeLabel;resizable=0;html=1;align=center;verticalAlign=middle;fontColor=#97D077;fontSize=15;fontStyle=1" parent="cIO9dwuHijUFWXJYowMV-25" connectable="0" vertex="1">
          <mxGeometry relative="1" as="geometry" />
        </mxCell>
        <mxCell id="cIO9dwuHijUFWXJYowMV-8" value="&lt;font style=&quot;font-size: 10px&quot; color=&quot;#007fff&quot;&gt;GSO - ITS - AppDev Team - DEV&lt;/font&gt;" style="text;html=1;strokeColor=#d6b656;fillColor=#fff2cc;align=center;verticalAlign=middle;whiteSpace=wrap;rounded=0;" parent="1" vertex="1">
          <mxGeometry x="120" y="270" width="160" height="20" as="geometry" />
        </mxCell>
        <mxCell id="cIO9dwuHijUFWXJYowMV-2" value="" style="rounded=1;whiteSpace=wrap;html=1;fillColor=#FFFFFF;strokeColor=#CC0066;strokeWidth=2;labelBackgroundColor=#ffffff;" parent="1" vertex="1">
          <mxGeometry x="130" y="70" width="140" height="40" as="geometry" />
        </mxCell>
        <mxCell id="cIO9dwuHijUFWXJYowMV-4" value="&lt;font color=&quot;#0066cc&quot; style=&quot;font-size: 10px&quot;&gt;IMpact - QVD Extract - v2&lt;br&gt;&lt;/font&gt;" style="text;html=1;strokeColor=none;fillColor=none;align=center;verticalAlign=middle;whiteSpace=wrap;rounded=0;direction=west;rotation=0;" parent="1" vertex="1">
          <mxGeometry x="105" y="80" width="190" height="20" as="geometry" />
        </mxCell>
        <mxCell id="cIO9dwuHijUFWXJYowMV-41" value="&lt;font color=&quot;#3399ff&quot; style=&quot;font-size: 12px&quot;&gt;ENVIRONMENT&lt;/font&gt;" style="rounded=1;whiteSpace=wrap;html=1;strokeColor=#3399FF;strokeWidth=3;fillColor=#ffffff;fontSize=15;fontColor=#97D077;" parent="1" vertex="1">
          <mxGeometry x="1130" y="80" width="160" height="40" as="geometry" />
        </mxCell>
        <mxCell id="cIO9dwuHijUFWXJYowMV-42" value="&lt;font style=&quot;font-size: 12px&quot;&gt;SPACE&lt;/font&gt;" style="rounded=0;whiteSpace=wrap;html=1;strokeWidth=1;fillColor=#fff2cc;fontSize=15;strokeColor=#3399FF;" parent="1" vertex="1">
          <mxGeometry x="1130" y="130" width="160" height="40" as="geometry" />
        </mxCell>
        <mxCell id="cIO9dwuHijUFWXJYowMV-43" value="ETLs, DataFiles" style="rounded=1;whiteSpace=wrap;html=1;fillColor=#FFFFFF;strokeColor=#CC0066;strokeWidth=2;labelBackgroundColor=#ffffff;" parent="1" vertex="1">
          <mxGeometry x="1130" y="185" width="160" height="40" as="geometry" />
        </mxCell>
        <mxCell id="cIO9dwuHijUFWXJYowMV-50" value="Entities" style="swimlane;strokeColor=#3399FF;strokeWidth=1;fillColor=#ffffff;fontSize=15;fontColor=#97D077;startSize=23;" parent="1" vertex="1">
          <mxGeometry x="1100" y="40" width="230" height="350" as="geometry" />
        </mxCell>
        <mxCell id="52IjQ0Bezjnn7iR6LX3U-1" value="QVDs" style="rounded=0;whiteSpace=wrap;html=1;strokeWidth=2;labelBackgroundColor=#ffffff;fillColor=#EA6B66;strokeColor=#EA6B66;" vertex="1" parent="cIO9dwuHijUFWXJYowMV-50">
          <mxGeometry x="30" y="200" width="160" height="40" as="geometry" />
        </mxCell>
        <mxCell id="cIO9dwuHijUFWXJYowMV-48" value="" style="endArrow=classic;html=1;strokeColor=#82b366;strokeWidth=4;fontSize=15;fontColor=#97D077;fillColor=#d5e8d4;" parent="cIO9dwuHijUFWXJYowMV-50" edge="1">
          <mxGeometry relative="1" as="geometry">
            <mxPoint x="30" y="260" as="sourcePoint" />
            <mxPoint x="190" y="260" as="targetPoint" />
          </mxGeometry>
        </mxCell>
        <mxCell id="cIO9dwuHijUFWXJYowMV-49" value="&lt;font style=&quot;font-size: 12px&quot;&gt;Data Connection&lt;/font&gt;" style="edgeLabel;resizable=0;html=1;align=center;verticalAlign=middle;fontColor=#97D077;" parent="cIO9dwuHijUFWXJYowMV-48" connectable="0" vertex="1">
          <mxGeometry relative="1" as="geometry" />
        </mxCell>
        <mxCell id="52IjQ0Bezjnn7iR6LX3U-2" value="" style="endArrow=classic;html=1;strokeWidth=1;fontSize=15;fontColor=#97D077;fillColor=#d5e8d4;" edge="1" parent="cIO9dwuHijUFWXJYowMV-50">
          <mxGeometry relative="1" as="geometry">
            <mxPoint x="30" y="290" as="sourcePoint" />
            <mxPoint x="190" y="290" as="targetPoint" />
          </mxGeometry>
        </mxCell>
        <mxCell id="52IjQ0Bezjnn7iR6LX3U-3" value="&lt;font style=&quot;font-size: 12px&quot; color=&quot;#000000&quot;&gt;LOAD/STORE&lt;/font&gt;" style="edgeLabel;resizable=0;html=1;align=center;verticalAlign=middle;fontColor=#97D077;" connectable="0" vertex="1" parent="52IjQ0Bezjnn7iR6LX3U-2">
          <mxGeometry relative="1" as="geometry" />
        </mxCell>
        <mxCell id="52IjQ0Bezjnn7iR6LX3U-17" value="" style="endArrow=classic;html=1;strokeColor=#000000;strokeWidth=1;fontSize=15;fontColor=#97D077;" edge="1" parent="cIO9dwuHijUFWXJYowMV-50">
          <mxGeometry relative="1" as="geometry">
            <mxPoint x="40" y="320" as="sourcePoint" />
            <mxPoint x="190" y="320" as="targetPoint" />
          </mxGeometry>
        </mxCell>
        <mxCell id="52IjQ0Bezjnn7iR6LX3U-18" value="" style="shape=message;html=1;outlineConnect=0;" vertex="1" parent="52IjQ0Bezjnn7iR6LX3U-17">
          <mxGeometry width="20" height="14" relative="1" as="geometry">
            <mxPoint x="-10" y="-7" as="offset" />
          </mxGeometry>
        </mxCell>
        <mxCell id="52IjQ0Bezjnn7iR6LX3U-19" value="&lt;font color=&quot;#000000&quot;&gt;PUBLISH&lt;/font&gt;" style="edgeLabel;html=1;align=center;verticalAlign=middle;resizable=0;points=[];fontSize=15;fontColor=#97D077;" vertex="1" connectable="0" parent="52IjQ0Bezjnn7iR6LX3U-17">
          <mxGeometry x="-0.7363" y="1" relative="1" as="geometry">
            <mxPoint as="offset" />
          </mxGeometry>
        </mxCell>
        <mxCell id="52IjQ0Bezjnn7iR6LX3U-6" value="" style="rounded=1;whiteSpace=wrap;html=1;strokeWidth=3;fillColor=#FFFFFF;fontColor=#CC0066;strokeColor=#66B2FF;labelBackgroundColor=#ffffff;" vertex="1" parent="1">
          <mxGeometry x="100" y="370" width="800" height="300" as="geometry" />
        </mxCell>
        <mxCell id="52IjQ0Bezjnn7iR6LX3U-7" value="&lt;font color=&quot;#ffffff&quot;&gt;Test Environment&lt;/font&gt;" style="text;html=1;align=center;verticalAlign=middle;whiteSpace=wrap;rounded=0;direction=west;rotation=-90;strokeWidth=1;strokeColor=#3399FF;fillColor=#3399FF;" vertex="1" parent="1">
          <mxGeometry x="-20" y="510" width="190" height="20" as="geometry" />
        </mxCell>
        <mxCell id="52IjQ0Bezjnn7iR6LX3U-29" value="" style="group" vertex="1" connectable="0" parent="1">
          <mxGeometry x="410" y="60" width="160" height="210" as="geometry" />
        </mxCell>
        <mxCell id="cIO9dwuHijUFWXJYowMV-22" value="" style="rounded=0;whiteSpace=wrap;html=1;strokeWidth=1;fillColor=#fff2cc;strokeColor=#3399FF;" parent="52IjQ0Bezjnn7iR6LX3U-29" vertex="1">
          <mxGeometry width="160" height="210" as="geometry" />
        </mxCell>
        <mxCell id="cIO9dwuHijUFWXJYowMV-28" value="&lt;h1 style=&quot;font-size: 5px&quot;&gt;&lt;font color=&quot;#ea6b66&quot; style=&quot;font-size: 5px&quot;&gt;QVDs&lt;/font&gt;&lt;/h1&gt;&lt;h1 style=&quot;font-size: 5px&quot;&gt;&lt;font style=&quot;font-size: 5px&quot;&gt;BGD_FIELD_v1_0&lt;/font&gt;&lt;/h1&gt;&lt;h1 style=&quot;font-size: 5px&quot;&gt;&lt;font style=&quot;font-size: 5px&quot;&gt;BGD_OBSERVATION_v1_0&lt;/font&gt;&lt;/h1&gt;&lt;h1 style=&quot;font-size: 5px&quot;&gt;&lt;font style=&quot;font-size: 5px&quot;&gt;BGD_Calendar_v1_0&lt;/font&gt;&lt;/h1&gt;&lt;h1 style=&quot;font-size: 5px&quot;&gt;&lt;font style=&quot;font-size: 5px&quot;&gt;BGD_STOCK_v1_0&lt;/font&gt;&lt;/h1&gt;&lt;h1 style=&quot;font-size: 5px&quot;&gt;&lt;font style=&quot;font-size: 5px&quot;&gt;BGD_STOCK_EXTERNAL_CHOICES_v1_0&lt;/font&gt;&lt;/h1&gt;&lt;h1 style=&quot;font-size: 5px&quot;&gt;&lt;font style=&quot;font-size: 5px&quot;&gt;BGD_STOCK_EXTERNAL_CHOICES_PACKAGES_v1_0&lt;/font&gt;&lt;/h1&gt;&lt;p&gt;&lt;/p&gt;" style="text;html=1;spacing=5;spacingTop=-20;whiteSpace=wrap;overflow=hidden;rounded=0;strokeColor=#EA6B66;fillColor=#EA6B66;" parent="52IjQ0Bezjnn7iR6LX3U-29" vertex="1">
          <mxGeometry x="5" y="70" width="150" height="70" as="geometry" />
        </mxCell>
        <mxCell id="cIO9dwuHijUFWXJYowMV-5" value="Data Files" style="rounded=1;whiteSpace=wrap;html=1;fillColor=#FFFFFF;strokeColor=#CC0066;strokeWidth=2;labelBackgroundColor=#ffffff;" parent="52IjQ0Bezjnn7iR6LX3U-29" vertex="1">
          <mxGeometry x="10" y="10" width="140" height="40" as="geometry" />
        </mxCell>
        <mxCell id="52IjQ0Bezjnn7iR6LX3U-22" style="edgeStyle=elbowEdgeStyle;rounded=1;orthogonalLoop=1;jettySize=auto;html=1;exitX=0.5;exitY=1;exitDx=0;exitDy=0;entryX=0.5;entryY=0;entryDx=0;entryDy=0;startArrow=none;startFill=0;endArrow=blockThin;endFill=1;strokeColor=#000000;strokeWidth=1;fontSize=15;fontColor=#97D077;" edge="1" parent="52IjQ0Bezjnn7iR6LX3U-29" source="cIO9dwuHijUFWXJYowMV-5" target="cIO9dwuHijUFWXJYowMV-28">
          <mxGeometry relative="1" as="geometry" />
        </mxCell>
        <mxCell id="52IjQ0Bezjnn7iR6LX3U-30" style="edgeStyle=elbowEdgeStyle;rounded=1;orthogonalLoop=1;jettySize=auto;html=1;exitX=0;exitY=0.5;exitDx=0;exitDy=0;startArrow=none;startFill=0;endArrow=blockThin;endFill=1;strokeColor=#000000;strokeWidth=1;fontSize=15;fontColor=#97D077;" edge="1" parent="1" source="cIO9dwuHijUFWXJYowMV-28" target="cIO9dwuHijUFWXJYowMV-10">
          <mxGeometry relative="1" as="geometry" />
        </mxCell>
        <mxCell id="cIO9dwuHijUFWXJYowMV-14" style="edgeStyle=orthogonalEdgeStyle;rounded=0;orthogonalLoop=1;jettySize=auto;html=1;exitX=1;exitY=0.5;exitDx=0;exitDy=0;" parent="1" source="cIO9dwuHijUFWXJYowMV-2" target="cIO9dwuHijUFWXJYowMV-5" edge="1">
          <mxGeometry relative="1" as="geometry" />
        </mxCell>
        <mxCell id="cIO9dwuHijUFWXJYowMV-38" value="" style="group;fillColor=#fff2cc;strokeColor=#d6b656;container=0;" parent="1" vertex="1" connectable="0">
          <mxGeometry x="700" y="60" width="160" height="230" as="geometry" />
        </mxCell>
        <mxCell id="cIO9dwuHijUFWXJYowMV-35" value="IMpact - CMAM - v1" style="pointerEvents=1;shadow=0;dashed=0;html=1;strokeColor=none;fillColor=#434445;aspect=fixed;labelPosition=center;verticalLabelPosition=bottom;verticalAlign=top;align=center;outlineConnect=0;shape=mxgraph.vvd.nsx_dashboard;" parent="1" vertex="1">
          <mxGeometry x="766.88" y="216" width="27.74" height="25.8" as="geometry" />
        </mxCell>
        <mxCell id="52IjQ0Bezjnn7iR6LX3U-21" value="&lt;h1 style=&quot;font-size: 5px&quot;&gt;&lt;font color=&quot;#ea6b66&quot; style=&quot;font-size: 5px&quot;&gt;QVDs&lt;/font&gt;&lt;/h1&gt;&lt;h1 style=&quot;font-size: 5px&quot;&gt;&lt;font style=&quot;font-size: 5px&quot;&gt;BGD_FIELD_v1_0&lt;/font&gt;&lt;/h1&gt;&lt;h1 style=&quot;font-size: 5px&quot;&gt;&lt;font style=&quot;font-size: 5px&quot;&gt;BGD_OBSERVATION_v1_0&lt;/font&gt;&lt;/h1&gt;&lt;h1 style=&quot;font-size: 5px&quot;&gt;&lt;font style=&quot;font-size: 5px&quot;&gt;BGD_Calendar_v1_0&lt;/font&gt;&lt;/h1&gt;&lt;h1 style=&quot;font-size: 5px&quot;&gt;&lt;font style=&quot;font-size: 5px&quot;&gt;BGD_STOCK_v1_0&lt;/font&gt;&lt;/h1&gt;&lt;h1 style=&quot;font-size: 5px&quot;&gt;&lt;font style=&quot;font-size: 5px&quot;&gt;BGD_STOCK_EXTERNAL_CHOICES_v1_0&lt;/font&gt;&lt;/h1&gt;&lt;h1 style=&quot;font-size: 5px&quot;&gt;&lt;font style=&quot;font-size: 5px&quot;&gt;BGD_STOCK_EXTERNAL_CHOICES_PACKAGES_v1_0&lt;/font&gt;&lt;/h1&gt;&lt;p&gt;&lt;/p&gt;" style="text;html=1;spacing=5;spacingTop=-20;whiteSpace=wrap;overflow=hidden;rounded=0;strokeColor=#EA6B66;fillColor=#EA6B66;" vertex="1" parent="1">
          <mxGeometry x="704.5" y="135" width="152.5" height="75" as="geometry" />
        </mxCell>
        <mxCell id="52IjQ0Bezjnn7iR6LX3U-26" value="&lt;font color=&quot;#3399ff&quot;&gt;&lt;span style=&quot;font-size: 10px&quot;&gt;BGD - Public - DEV&lt;/span&gt;&lt;/font&gt;" style="text;html=1;strokeColor=#d6b656;align=center;verticalAlign=middle;whiteSpace=wrap;rounded=0;fillColor=#fff2cc;" vertex="1" parent="1">
          <mxGeometry x="700" y="270" width="160" height="20" as="geometry" />
        </mxCell>
        <mxCell id="52IjQ0Bezjnn7iR6LX3U-32" style="edgeStyle=elbowEdgeStyle;rounded=1;orthogonalLoop=1;jettySize=auto;html=1;exitX=0.5;exitY=1;exitDx=0;exitDy=0;entryX=0.5;entryY=0;entryDx=0;entryDy=0;startArrow=none;startFill=0;endArrow=blockThin;endFill=1;strokeColor=#000000;strokeWidth=1;fontSize=15;fontColor=#97D077;" edge="1" parent="1" source="52IjQ0Bezjnn7iR6LX3U-31" target="52IjQ0Bezjnn7iR6LX3U-21">
          <mxGeometry relative="1" as="geometry" />
        </mxCell>
        <mxCell id="52IjQ0Bezjnn7iR6LX3U-31" value="Data Files" style="rounded=1;whiteSpace=wrap;html=1;fillColor=#FFFFFF;strokeColor=#CC0066;strokeWidth=2;labelBackgroundColor=#ffffff;" vertex="1" parent="1">
          <mxGeometry x="710" y="70" width="140" height="40" as="geometry" />
        </mxCell>
        <mxCell id="52IjQ0Bezjnn7iR6LX3U-28" style="edgeStyle=elbowEdgeStyle;rounded=1;orthogonalLoop=1;jettySize=auto;html=1;exitX=0.5;exitY=1;exitDx=0;exitDy=0;startArrow=none;startFill=0;endArrow=blockThin;endFill=1;strokeColor=#000000;strokeWidth=1;fontSize=15;fontColor=#97D077;entryX=0.25;entryY=1;entryDx=0;entryDy=0;" edge="1" parent="1" source="cIO9dwuHijUFWXJYowMV-10" target="52IjQ0Bezjnn7iR6LX3U-21">
          <mxGeometry relative="1" as="geometry">
            <Array as="points">
              <mxPoint x="640" y="230" />
              <mxPoint x="630" y="240" />
              <mxPoint x="200" y="210" />
              <mxPoint x="330" y="190" />
              <mxPoint x="320" y="200" />
              <mxPoint x="310" y="220" />
            </Array>
          </mxGeometry>
        </mxCell>
      </root>
    </mxGraphModel>
  </diagram>
</mxfile>
